<?xml version="1.0" standalone="no"?>
<!DOCTYPE svg PUBLIC "-//W3C//DTD SVG 20010904//EN"
 "http://www.w3.org/TR/2001/REC-SVG-20010904/DTD/svg10.dtd">
<svg version="1.0" xmlns="http://www.w3.org/2000/svg"
 width="300.000000pt" height="300.000000pt" viewBox="0 0 300.000000 300.000000"
 preserveAspectRatio="xMidYMid meet">
<metadata>
Created by potrace 1.10, written by Peter Selinger 2001-2011
</metadata>
<g transform="translate(0.000000,300.000000) scale(0.100000,-0.100000)"
fill="#000000" stroke="none">
<path d="M1032 2984 c-37 -19 -47 -47 -39 -107 l6 -42 -69 -28 c-256 -104
-512 -335 -662 -594 -130 -226 -188 -448 -188 -718 1 -174 8 -210 54 -253 43
-39 102 -44 154 -12 52 32 60 64 54 215 -13 338 94 621 327 868 84 88 97 118
61 137 -28 15 -45 4 -137 -94 -163 -172 -266 -370 -319 -611 -13 -58 -18 -130
-19 -258 -1 -144 -4 -180 -15 -188 -21 -13 -28 -11 -49 10 -39 39 -35 311 9
496 92 392 349 715 715 897 50 25 107 51 128 57 44 15 52 37 38 101 -5 24 -8
46 -6 48 2 2 80 -25 174 -60 l171 -64 -137 -115 c-76 -63 -141 -115 -144 -117
-4 -2 -10 20 -14 48 -7 50 -25 80 -49 80 -7 0 -63 -25 -124 -56 -87 -43 -113
-61 -118 -80 -7 -28 10 -54 36 -54 10 0 49 18 86 40 38 22 74 40 81 40 8 0 13
-12 13 -28 0 -52 74 -97 120 -72 44 24 321 262 329 283 12 31 3 72 -19 92 -19
17 -331 138 -385 149 -19 4 -42 0 -63 -10z m37 -51 c-16 -14 -33 -23 -36 -19
-10 10 38 55 53 49 9 -3 5 -12 -17 -30z m12 -329 c5 -15 7 -29 4 -32 -9 -10
-48 35 -41 47 12 18 26 12 37 -15z"/>
<path d="M2883 2977 l17 -27 -146 0 c-165 0 -192 -9 -215 -75 -14 -39 -21 -42
-39 -20 -7 8 -24 15 -38 15 l-25 0 22 24 c13 14 53 39 90 58 l66 33 -37 3
c-61 5 -113 -31 -276 -192 -113 -111 -160 -165 -180 -206 l-27 -55 -3 -275
c-3 -248 -1 -278 15 -310 31 -61 64 -70 261 -70 100 0 181 4 193 10 22 12 25
52 6 69 -9 6 -83 12 -198 13 l-184 3 -3 240 c-1 132 0 250 3 262 10 41 53 53
187 53 182 0 198 17 198 220 0 164 -5 160 184 160 122 0 145 -2 150 -16 3 -9
6 -215 6 -458 0 -330 -3 -445 -12 -454 -7 -7 -43 -12 -93 -12 -50 0 -86 -5
-93 -12 -18 -18 -14 -56 7 -68 31 -16 168 -12 207 6 65 31 64 22 64 554 l0
482 -29 29 c-16 16 -36 29 -44 29 -9 0 -24 3 -34 7 -17 7 -17 6 0 -20z m-401
-239 c-2 -73 -8 -115 -15 -120 -7 -4 -60 -8 -120 -8 l-107 0 117 119 c65 66
120 120 123 120 3 1 4 -50 2 -111z m-257 -98 c-3 -11 1 -30 11 -44 16 -25 15
-26 -12 -36 -16 -6 -41 -25 -56 -43 -26 -30 -27 -31 -28 -9 0 32 22 81 54 120
32 37 40 40 31 12z"/>
<path d="M2333 2393 c-15 -6 -17 -59 -3 -68 7 -5 313 -9 412 -6 22 1 34 46 18
66 -10 12 -47 15 -214 14 -110 0 -207 -3 -213 -6z"/>
<path d="M2332 2208 c-7 -7 -12 -21 -12 -33 0 -42 14 -45 218 -45 114 0 201 4
213 10 21 12 25 50 7 68 -17 17 -409 17 -426 0z"/>
<path d="M1380 2132 c-28 -28 -32 -43 -45 -143 -5 -42 -10 -48 -43 -63 -20 -9
-48 -25 -61 -35 -24 -18 -25 -18 -87 10 -117 53 -154 38 -223 -93 -49 -92 -42
-122 44 -186 l64 -47 0 -75 0 -75 -64 -47 c-86 -64 -93 -94 -44 -186 69 -131
106 -146 223 -93 62 28 63 28 87 10 13 -10 41 -26 61 -35 33 -15 38 -21 43
-63 13 -100 17 -115 45 -143 27 -27 32 -28 124 -28 90 0 97 2 127 28 27 24 32
37 41 108 l10 82 49 23 c28 12 54 28 60 35 8 9 25 6 74 -17 72 -32 120 -37
152 -14 31 22 103 157 103 192 0 38 -25 71 -89 114 l-50 34 0 75 0 75 50 34
c64 43 89 76 89 114 0 35 -72 170 -103 192 -32 23 -80 18 -151 -14 -62 -28
-63 -28 -87 -10 -13 10 -40 25 -60 35 -36 16 -37 17 -47 97 -9 72 -14 85 -41
109 -30 26 -37 28 -127 28 -92 0 -97 -1 -124 -28z m205 -119 c13 -121 14 -123
83 -159 35 -17 74 -41 86 -53 30 -28 42 -27 132 14 42 19 78 35 80 35 1 0 9
-14 18 -30 8 -17 24 -45 35 -63 l20 -33 -72 -55 -72 -54 0 -115 0 -115 72 -54
72 -55 -20 -33 c-11 -18 -27 -46 -35 -63 -9 -16 -17 -30 -18 -30 -2 0 -38 16
-80 35 -90 41 -102 42 -132 14 -12 -12 -51 -36 -86 -53 -69 -36 -70 -38 -83
-158 l-6 -58 -74 0 -73 0 -7 78 c-4 42 -12 85 -17 95 -5 10 -30 27 -55 38 -25
11 -63 33 -83 49 -21 17 -45 30 -53 30 -8 0 -49 -16 -92 -35 -43 -20 -79 -34
-80 -33 -14 19 -65 118 -65 124 1 5 32 31 70 58 39 27 70 55 70 63 1 7 1 56 1
108 0 52 0 99 -1 103 0 5 -31 31 -70 58 -38 27 -69 53 -70 58 0 6 51 105 65
124 1 1 37 -13 80 -33 43 -19 84 -35 92 -35 8 0 32 13 53 30 20 16 58 39 84
49 54 24 61 37 71 139 l7 72 73 0 74 0 6 -57z"/>
<path d="M1414 1754 c-104 -38 -174 -141 -174 -254 0 -246 299 -362 463 -181
20 22 44 58 53 78 21 49 21 157 0 206 -22 51 -81 114 -130 139 -53 27 -156 33
-212 12z m181 -97 c125 -71 125 -243 0 -314 -120 -68 -269 19 -269 157 0 138
149 225 269 157z"/>
<path d="M2728 1774 c-53 -28 -59 -57 -62 -273 -2 -177 -5 -206 -29 -295 -34
-126 -117 -299 -194 -401 -77 -103 -193 -213 -296 -280 -75 -48 -159 -95 -171
-95 -3 0 -10 18 -16 40 -8 31 -19 45 -44 57 -19 9 -44 13 -57 10 -24 -6 -284
-216 -326 -263 -27 -29 -30 -79 -8 -111 10 -14 74 -42 192 -86 212 -77 216
-78 255 -65 39 14 60 60 48 111 l-8 37 96 45 c286 136 538 380 677 655 43 86
100 249 120 345 35 172 38 445 4 518 -27 59 -119 85 -181 51z m115 -155 c11
-90 0 -275 -23 -390 -87 -427 -395 -802 -793 -965 -107 -44 -112 -49 -98 -114
6 -29 10 -55 7 -57 -2 -2 -81 24 -174 59 l-171 64 142 117 142 117 8 -42 c20
-101 31 -103 169 -36 455 223 723 671 705 1176 -4 126 -3 133 16 147 37 26 61
-1 70 -76z m-888 -1209 c13 -15 15 -24 8 -31 -15 -15 -30 -4 -35 26 -6 30 3
32 27 5z m11 -355 c-16 -24 -46 -35 -46 -16 0 12 51 53 58 46 3 -2 -3 -16 -12
-30z"/>
<path d="M90 913 c-19 -10 -45 -33 -57 -52 -21 -31 -23 -45 -23 -176 0 -124 2
-146 19 -166 18 -22 18 -24 0 -53 -16 -26 -19 -52 -19 -171 0 -121 3 -144 20
-172 37 -61 48 -63 369 -63 266 0 291 1 299 18 6 9 6 27 1 40 l-8 22 -281 0
c-345 0 -320 -12 -320 155 0 102 2 117 20 135 19 19 33 20 515 20 482 0 496
-1 515 -20 18 -18 20 -33 20 -133 0 -157 7 -151 -176 -157 -126 -4 -148 -8
-158 -22 -8 -13 -8 -23 0 -35 10 -16 30 -18 177 -18 l166 0 31 30 c42 40 53
90 48 225 -2 89 -7 122 -20 142 -17 25 -17 29 3 73 18 41 21 63 17 170 -3 134
-10 154 -72 199 -27 20 -40 21 -539 24 -472 2 -515 1 -547 -15z m1052 -90 c15
-14 18 -32 18 -134 0 -94 -3 -121 -16 -133 -8 -9 -21 -16 -27 -16 -7 0 -230
-2 -496 -4 l-484 -4 -24 24 c-21 21 -23 31 -23 131 0 82 4 114 16 131 l15 22
501 0 c453 0 503 -2 520 -17z m-1041 -307 c26 -22 27 -25 11 -38 -37 -32 -45
-33 -38 -4 3 14 2 35 -4 46 -14 27 -4 25 31 -4z m1076 -25 c0 -39 0 -40 -23
-24 -13 8 -24 19 -24 24 0 6 38 39 46 39 1 0 1 -18 1 -39z"/>
<path d="M185 777 c-44 -44 -54 -94 -28 -143 42 -81 140 -96 200 -30 28 31 33
43 33 87 0 45 -4 55 -34 85 -30 30 -40 34 -86 34 -46 0 -56 -4 -85 -33z m109
-60 c21 -16 18 -45 -6 -61 -35 -22 -74 27 -48 59 15 18 31 19 54 2z"/>
<path d="M478 794 c-36 -19 -58 -63 -58 -115 0 -81 94 -138 173 -105 124 52
85 237 -50 236 -21 -1 -50 -7 -65 -16z m92 -78 c6 -8 10 -25 8 -38 -4 -30 -46
-38 -65 -12 -17 23 -16 29 3 48 19 20 38 20 54 2z"/>
<path d="M762 718 c-17 -17 -15 -44 4 -62 12 -13 41 -16 154 -16 120 0 141 2
161 19 21 16 22 22 11 45 l-12 26 -153 0 c-106 0 -157 -4 -165 -12z"/>
<path d="M199 397 c-48 -32 -68 -91 -48 -143 28 -74 120 -107 183 -65 39 26
55 57 56 109 0 101 -106 156 -191 99z m95 -73 c31 -30 8 -69 -36 -62 -30 4
-38 46 -12 65 23 17 29 16 48 -3z"/>
<path d="M479 403 c-81 -50 -77 -178 7 -218 18 -8 44 -15 59 -15 62 0 125 63
125 126 0 37 -36 94 -70 111 -34 17 -90 16 -121 -4z m99 -111 c-2 -22 -8 -27
-32 -27 -17 0 -33 7 -40 18 -9 15 -7 22 12 37 32 26 65 11 60 -28z"/>
<path d="M762 328 c-18 -18 -14 -56 7 -68 11 -5 82 -10 159 -10 122 0 141 2
155 18 21 23 21 36 1 56 -13 13 -42 16 -163 16 -101 0 -151 -4 -159 -12z"/>
</g>
</svg>
