<?xml version="1.0" standalone="no"?>
<!DOCTYPE svg PUBLIC "-//W3C//DTD SVG 20010904//EN"
 "http://www.w3.org/TR/2001/REC-SVG-20010904/DTD/svg10.dtd">
<svg version="1.0" xmlns="http://www.w3.org/2000/svg"
 width="300.000000pt" height="300.000000pt" viewBox="0 0 300.000000 300.000000"
 preserveAspectRatio="xMidYMid meet">
<metadata>
Created by potrace 1.10, written by Peter Selinger 2001-2011
</metadata>
<g transform="translate(0.000000,300.000000) scale(0.100000,-0.100000)"
fill="#000000" stroke="none">
<path d="M643 2938 c-6 -7 -18 -34 -28 -60 -10 -27 -22 -48 -28 -48 -5 0 -36
-12 -69 -27 l-59 -26 -45 21 c-24 12 -52 22 -62 22 -22 0 -172 -150 -172 -172
0 -10 10 -38 22 -62 l21 -45 -26 -59 c-15 -33 -27 -64 -27 -69 0 -6 -21 -18
-47 -28 -76 -28 -74 -24 -71 -158 l3 -121 54 -21 c53 -20 55 -22 83 -90 l28
-70 -20 -49 c-11 -27 -20 -54 -20 -61 0 -6 38 -48 84 -93 92 -90 86 -88 165
-47 27 14 33 13 88 -11 32 -14 64 -28 72 -32 7 -4 22 -29 32 -56 10 -27 24
-53 31 -58 7 -4 37 -8 66 -8 l52 0 0 -346 c0 -394 0 -392 79 -450 95 -69 284
-118 513 -133 73 -5 165 -7 203 -4 l70 5 27 -62 c25 -58 26 -64 12 -91 -40
-79 -42 -73 48 -165 45 -46 87 -84 93 -84 7 0 34 9 61 20 l49 20 70 -28 c68
-28 70 -30 90 -83 l21 -54 121 -3 c134 -3 130 -5 158 70 10 27 22 48 28 48 5
0 36 12 69 27 l59 26 45 -21 c24 -12 52 -22 62 -22 22 0 172 150 172 172 0 10
-10 38 -22 62 l-21 45 26 59 c15 33 27 64 27 69 0 6 21 18 48 28 75 28 73 24
70 158 l-3 121 -54 21 c-53 20 -55 22 -83 90 l-28 70 20 49 c11 27 20 54 20
61 0 6 -38 48 -84 93 -92 90 -86 88 -165 47 -27 -14 -33 -13 -88 11 -32 14
-64 28 -72 32 -7 4 -22 29 -32 56 -10 27 -24 53 -31 58 -7 4 -37 8 -65 8 l-53
0 0 346 c0 394 0 392 -79 450 -95 69 -284 118 -518 133 -76 5 -167 7 -203 4
l-65 -5 -27 62 c-25 58 -26 64 -12 91 40 79 42 73 -48 165 -45 46 -87 84 -93
84 -7 0 -34 -9 -61 -20 l-49 -20 -70 28 c-68 28 -70 30 -90 83 l-21 54 -121 3
c-88 2 -123 -1 -130 -10z m45 -56 c-15 -20 -24 -24 -26 -15 -5 18 16 43 35 43
11 0 8 -8 -9 -28z m168 20 c12 -8 26 -42 17 -42 -10 0 -43 32 -43 42 0 10 11
10 26 0z m-9 -92 c12 -27 30 -53 40 -56 16 -6 81 -32 165 -67 23 -9 35 -8 71
10 l44 21 44 -44 43 -43 -23 -49 -22 -48 35 -74 c20 -41 36 -82 36 -91 0 -22
29 -46 76 -62 l39 -14 2 -59 1 -60 -51 -20 c-50 -19 -52 -22 -77 -89 -15 -39
-34 -85 -43 -103 -17 -31 -17 -34 4 -83 l22 -51 -41 -40 -40 -41 -51 22 c-49
21 -52 21 -83 4 -18 -9 -64 -28 -103 -43 -67 -25 -70 -27 -89 -76 l-20 -51
-59 1 -60 1 -14 39 c-16 47 -40 76 -62 76 -9 0 -50 16 -91 36 l-74 35 -48 -22
-49 -23 -43 43 -44 44 21 44 c18 36 19 48 10 71 -35 84 -61 149 -67 165 -3 10
-29 28 -56 40 l-50 21 0 62 0 61 45 13 c53 15 55 17 85 100 12 36 29 74 36 85
19 27 18 49 -7 97 l-21 41 45 44 44 45 41 -21 c48 -25 70 -26 97 -7 11 7 49
24 85 36 83 30 85 32 100 85 l13 45 61 0 62 0 21 -50z m-467 -50 c0 -5 -7 -10
-15 -10 -40 0 -102 -67 -115 -124 l-7 -31 -8 28 c-7 26 -2 35 51 88 53 54 94
75 94 49z m861 -44 c64 -61 75 -84 55 -112 -15 -19 -15 -18 -10 2 3 12 -1 35
-10 51 -18 36 -81 93 -101 93 -8 0 -15 5 -15 10 0 22 28 7 81 -44z m186 -336
l65 -5 -21 -27 c-12 -14 -21 -33 -21 -42 0 -23 -13 -20 -39 8 -13 14 -35 30
-51 36 -25 11 -50 46 -50 72 0 6 12 1 26 -13 20 -19 40 -25 91 -29z m-1309
-71 c-18 -24 -24 -27 -26 -14 -4 19 15 45 35 45 10 0 7 -8 -9 -31z m1612 11
c189 -24 362 -83 397 -136 15 -23 15 -26 -8 -50 -46 -50 -158 -92 -314 -119
-109 -19 -455 -33 -455 -18 0 34 24 72 49 78 15 3 41 14 59 25 l32 20 0 105 0
105 78 0 c43 0 116 -5 162 -10z m-1599 -182 c6 -11 6 -18 0 -18 -15 0 -41 30
-41 47 0 13 3 13 16 3 8 -8 20 -22 25 -32z m1293 -5 c-25 -18 -29 -9 -7 20 14
20 19 22 22 9 2 -9 -5 -22 -15 -29z m765 -38 c3 -79 -3 -91 -31 -65 -12 11
-33 20 -47 20 l-26 0 33 31 c18 17 40 41 48 55 9 13 17 24 19 24 1 0 3 -29 4
-65z m-851 -117 l25 -27 -27 -10 c-37 -15 -52 -51 -37 -91 10 -31 8 -34 -46
-91 -40 -42 -63 -59 -82 -59 -22 0 -19 3 18 23 24 12 58 41 74 64 l30 42 -19
50 c-18 50 -18 50 6 102 14 28 26 45 28 37 3 -7 16 -25 30 -40z m791 -275 c-6
-12 -38 -36 -70 -53 -214 -114 -710 -132 -1027 -39 -40 12 -70 24 -67 27 2 3
28 15 58 26 l53 22 49 -22 c28 -13 54 -23 59 -23 10 -1 155 138 167 161 7 13
4 29 -11 57 -11 22 -20 42 -20 43 0 2 93 3 208 3 173 1 226 5 321 24 115 22
224 58 264 86 l22 15 3 -152 c2 -102 -1 -160 -9 -175z m-1843 65 c16 -17 46
-39 68 -48 30 -14 34 -19 20 -22 -12 -3 -38 13 -74 46 -69 63 -74 71 -64 104
7 26 7 26 14 -11 4 -21 20 -52 36 -69z m1904 -128 c0 -66 -9 -79 -35 -50 -10
11 -26 20 -37 20 -15 0 -12 8 19 49 21 26 41 46 46 44 4 -2 7 -31 7 -63z
m-1238 21 c-16 -29 -16 -31 7 -55 l24 -25 -35 5 c-44 8 -71 -7 -106 -54 l-27
-38 -28 33 c-28 32 -28 33 -7 33 37 0 81 30 96 65 15 37 48 65 76 65 16 0 16
-2 0 -29z m-267 -71 c26 -27 27 -30 8 -30 -12 0 -25 10 -31 25 -21 45 -16 46
23 5z m1431 -115 c-13 -12 -30 -41 -37 -64 -11 -35 -17 -42 -58 -56 -25 -9
-57 -22 -70 -29 -21 -12 -31 -11 -78 10 -38 17 -59 21 -71 15 -23 -12 -162
-157 -162 -167 1 -5 7 -20 15 -34 8 -14 14 -29 15 -34 0 -17 -407 1 -510 23
-158 33 -267 78 -290 121 -6 10 -10 69 -10 130 0 107 1 112 27 138 l26 27 81
-27 c129 -43 244 -60 447 -65 276 -8 501 26 639 95 l55 27 3 -43 c3 -36 -1
-48 -22 -67z m114 -28 c0 -2 -14 -7 -32 -11 -18 -3 -43 -16 -56 -29 l-24 -22
7 23 c3 12 18 40 32 62 l26 38 23 -28 c13 -15 24 -30 24 -33z m109 -38 l10
-30 -29 28 c-35 33 -35 33 -11 33 12 0 23 -11 30 -31z m-32 -53 c16 -47 40
-76 62 -76 9 0 50 -16 91 -36 l74 -35 48 22 49 23 43 -43 44 -44 -21 -44 c-18
-36 -19 -48 -10 -71 35 -84 61 -149 67 -165 3 -10 29 -28 56 -40 l50 -21 0
-62 0 -61 -45 -13 c-53 -15 -55 -17 -85 -100 -12 -36 -29 -74 -36 -85 -19 -27
-18 -49 7 -97 l21 -41 -45 -44 -44 -45 -41 21 c-48 25 -70 26 -97 7 -11 -7
-49 -24 -85 -36 -83 -30 -85 -32 -100 -85 l-13 -45 -62 0 -63 0 -18 50 c-17
46 -21 51 -68 66 -28 9 -72 27 -98 40 -57 29 -68 29 -117 5 l-38 -20 -43 44
-44 44 23 49 22 48 -35 74 c-20 41 -36 82 -36 91 0 22 -29 46 -76 62 -37 13
-39 16 -40 58 -2 67 3 75 55 97 45 18 50 24 66 73 10 30 28 75 42 102 l23 47
-21 51 -22 51 41 40 40 41 51 -22 c49 -21 52 -21 83 -4 18 9 64 28 103 43 67
25 70 27 89 76 l20 51 59 -1 60 -1 14 -39z m-500 -80 c-23 -13 -55 -41 -71
-63 l-29 -41 19 -51 18 -51 -24 -48 c-23 -44 -24 -46 -28 -20 -2 15 -14 36
-27 46 l-24 19 31 23 c27 20 30 27 24 58 -5 34 -1 40 58 99 44 44 68 62 79 57
12 -4 6 -12 -26 -28z m919 -43 c42 -40 55 -75 34 -88 -6 -3 -10 4 -10 18 0 31
-73 115 -107 123 -18 5 -21 9 -12 15 14 8 21 4 95 -68z m-1829 -52 c16 -9 15
-10 -8 -11 -14 0 -34 -9 -44 -20 -10 -11 -22 -20 -27 -20 -9 0 -11 123 -2 133
4 3 19 -11 35 -33 15 -21 36 -43 46 -49z m23 -66 c118 -60 331 -95 575 -95
155 0 167 -1 160 -17 -4 -10 -11 -29 -16 -43 -12 -33 -107 -70 -177 -70 -44 0
-54 -4 -67 -24 -13 -19 -14 -29 -5 -45 11 -22 20 -24 83 -21 l37 2 0 -68 0
-67 -127 6 c-216 9 -425 64 -493 127 l-30 28 0 156 c0 86 2 156 5 156 3 0 28
-11 55 -25z m672 -262 c-11 -16 -23 -38 -26 -50 -7 -23 -8 -23 -33 7 -14 17
-24 32 -22 34 7 5 84 35 92 35 5 1 0 -11 -11 -26z m1302 11 c12 -11 16 -36 16
-98 0 -82 -9 -106 -38 -106 -10 0 -8 7 7 26 16 20 21 41 21 85 0 32 -4 61 -10
64 -5 3 -15 15 -20 26 -13 23 2 26 24 3z m-1305 -178 c13 -14 35 -30 51 -36
25 -10 50 -46 50 -71 0 -6 -14 1 -31 15 -25 22 -41 26 -90 26 l-60 0 20 29
c12 16 21 36 21 45 0 23 13 20 39 -8z m151 -227 c0 -37 -18 -27 -22 12 -3 35
-2 38 9 23 7 -10 13 -26 13 -35z m-24 -64 c-11 -42 35 -105 110 -152 14 -9 15
-12 4 -12 -8 0 -37 21 -65 48 -76 73 -77 74 -64 110 13 37 24 42 15 6z m1054
-36 c0 -20 -113 -129 -134 -129 -25 0 -19 8 24 30 45 23 90 83 90 120 0 20 2
22 10 10 5 -8 10 -22 10 -31z m-432 -236 c-7 -15 -22 -29 -33 -31 -16 -4 -14
1 11 30 34 41 41 41 22 1z m-186 0 c19 -17 24 -33 9 -33 -12 0 -41 29 -41 41
0 14 11 11 32 -8z"/>
<path d="M641 2604 c-94 -33 -180 -110 -228 -204 -26 -50 -28 -64 -28 -165 0
-98 3 -116 26 -165 41 -85 99 -144 187 -187 72 -36 81 -38 172 -38 87 0 101 3
160 32 83 41 152 110 193 193 29 58 32 74 32 155 0 100 -17 159 -67 233 -39
57 -115 116 -183 141 -68 26 -198 28 -264 5z m268 -109 c176 -96 210 -334 68
-473 -114 -112 -281 -117 -407 -13 -85 70 -122 210 -85 322 23 68 109 158 175
182 71 26 182 18 249 -18z"/>
<path d="M1397 1749 c-12 -17 -13 -27 -5 -45 11 -23 16 -24 104 -24 84 0 94 2
108 22 13 19 14 25 2 43 -12 17 -26 20 -104 23 -83 2 -92 1 -105 -19z"/>
<path d="M1395 1306 c-13 -19 -14 -29 -5 -45 10 -19 20 -21 110 -21 90 0 100
2 110 21 9 16 8 26 -5 45 -14 22 -21 24 -105 24 -84 0 -91 -2 -105 -24z"/>
<path d="M2129 1146 c-192 -52 -322 -261 -280 -454 26 -121 110 -229 218 -280
52 -24 69 -27 168 -27 101 0 114 2 165 29 74 38 145 108 183 181 30 57 32 66
32 170 0 93 -3 118 -23 159 -82 178 -278 272 -463 222z m226 -106 c104 -51
165 -138 173 -250 7 -98 -17 -160 -87 -231 -71 -70 -133 -94 -231 -87 -251 18
-367 320 -192 501 88 92 229 119 337 67z"/>
<path d="M1585 2680 c-15 -17 -16 -24 -7 -45 l12 -25 495 0 495 0 0 -392 c0
-216 3 -404 6 -418 5 -24 4 -23 -23 8 -40 46 -93 40 -93 -11 0 -22 125 -206
145 -213 26 -10 52 15 115 111 57 86 62 98 52 120 -16 35 -54 33 -84 -5 l-23
-29 3 435 c3 385 2 438 -12 460 l-16 24 -524 0 c-511 0 -523 0 -541 -20z
m1029 -26 c9 -3 16 -18 16 -32 l0 -25 -25 23 c-30 28 -25 47 9 34z m26 -848
c0 -7 9 -21 19 -30 16 -14 23 -15 41 -6 12 6 24 9 27 7 9 -10 -82 -137 -98
-137 -17 0 -106 126 -96 136 3 3 15 -1 27 -8 19 -11 24 -10 41 11 10 13 19 30
19 38 0 8 5 11 10 8 6 -3 10 -12 10 -19z"/>
<path d="M344 1412 c-22 -15 -134 -188 -134 -208 0 -52 58 -60 89 -11 l21 32
0 -452 c0 -437 1 -453 19 -463 27 -14 1035 -14 1062 0 21 12 25 50 7 68 -9 9
-135 12 -505 12 l-493 0 0 415 c0 228 2 415 5 415 2 0 12 -14 20 -31 13 -24
22 -30 42 -27 14 2 32 12 40 24 12 19 8 29 -48 115 -74 115 -94 132 -125 111z
m59 -84 c13 -18 34 -51 47 -72 22 -37 22 -39 4 -32 -35 15 -48 11 -68 -20
l-21 -30 -21 30 c-11 17 -27 29 -35 27 -8 -2 -23 -6 -33 -9 -18 -5 -18 -2 4
34 40 65 72 104 86 104 7 0 24 -15 37 -32z m-11 -945 c21 -19 24 -43 5 -43
-19 0 -37 21 -37 42 0 22 8 23 32 1z"/>
</g>
</svg>
