<?xml version="1.0" standalone="no"?>
<!DOCTYPE svg PUBLIC "-//W3C//DTD SVG 20010904//EN"
 "http://www.w3.org/TR/2001/REC-SVG-20010904/DTD/svg10.dtd">
<svg version="1.0" xmlns="http://www.w3.org/2000/svg"
 width="300.000000pt" height="300.000000pt" viewBox="0 0 300.000000 300.000000"
 preserveAspectRatio="xMidYMid meet">
<metadata>
Created by potrace 1.10, written by Peter Selinger 2001-2011
</metadata>
<g transform="translate(0.000000,300.000000) scale(0.100000,-0.100000)"
fill="#000000" stroke="none">
<path d="M751 2829 c-383 -100 -640 -449 -618 -839 20 -346 237 -630 567 -741
170 -57 381 -51 573 17 119 43 197 96 197 134 0 12 -55 78 -132 161 -148 156
-132 149 -243 109 -82 -30 -196 -25 -277 12 -113 52 -195 159 -218 286 -29
165 65 342 218 408 31 14 64 29 72 33 12 7 15 43 18 212 3 255 6 251 -157 208z
m119 -204 l0 -175 -62 -31 c-85 -43 -132 -83 -178 -151 -90 -136 -99 -291 -25
-437 54 -108 183 -200 307 -221 63 -10 157 1 216 25 19 8 42 15 52 15 10 0 69
-54 131 -121 129 -138 129 -135 31 -187 -103 -55 -235 -84 -387 -86 -154 -1
-217 13 -350 78 -466 230 -581 845 -228 1227 121 130 323 237 451 239 l42 0 0
-175z"/>
<path d="M685 2734 c-197 -85 -361 -263 -431 -469 -39 -114 -45 -286 -15 -406
87 -347 383 -581 736 -582 123 0 204 17 302 63 77 35 95 65 68 107 -25 37
-113 130 -147 154 -26 19 -29 19 -90 3 -241 -64 -481 56 -558 280 -24 71 -27
195 -6 274 29 106 107 204 210 262 88 50 96 65 96 185 0 88 -3 106 -21 129
-26 34 -64 34 -144 0z m125 -123 l0 -120 -55 -25 c-64 -29 -151 -108 -195
-175 -98 -153 -98 -368 -1 -520 42 -65 126 -143 189 -175 114 -58 262 -70 376
-31 l49 17 78 -84 c43 -45 78 -85 78 -88 1 -9 -128 -60 -191 -75 -91 -21 -248
-19 -342 5 -194 49 -370 190 -458 367 -63 125 -82 215 -76 356 13 295 179 526
458 640 36 15 71 27 78 27 9 0 12 -30 12 -119z"/>
<path d="M1056 2837 c-17 -13 -19 -31 -19 -211 0 -124 4 -201 11 -208 6 -6 37
-21 69 -35 32 -13 64 -27 71 -30 17 -7 302 276 302 300 0 10 -12 29 -26 42
-59 54 -293 155 -361 155 -16 0 -37 -6 -47 -13z m223 -85 c108 -47 165 -87
153 -108 -14 -25 -235 -244 -246 -243 -6 0 -31 10 -56 22 l-45 22 -3 174 c-2
119 1 177 9 181 18 12 92 -7 188 -48z"/>
<path d="M1134 2753 c-25 -18 -34 -57 -34 -152 0 -96 1 -102 28 -132 22 -25
34 -31 53 -26 25 6 158 131 187 174 14 22 13 26 -4 51 -38 53 -195 110 -230
85z m77 -42 c30 -10 74 -28 98 -41 l44 -22 -88 -88 c-74 -74 -91 -87 -107 -79
-16 9 -18 24 -18 129 0 66 4 120 8 120 5 0 33 -8 63 -19z"/>
<path d="M2130 2659 c-32 -13 -68 -47 -86 -81 -47 -91 28 -208 135 -208 157 0
210 206 71 278 -47 24 -80 27 -120 11z m115 -55 c30 -19 49 -74 40 -114 -4
-16 -21 -41 -38 -56 -26 -22 -38 -25 -74 -21 -51 5 -71 20 -90 66 -19 44 -9
84 29 116 35 29 95 34 133 9z"/>
<path d="M2129 2571 c-16 -16 -29 -37 -29 -46 0 -29 28 -71 55 -83 35 -16 39
-16 74 14 40 34 42 77 4 116 -34 36 -67 36 -104 -1z m93 -36 c9 -21 8 -28 -7
-45 -31 -34 -75 -20 -75 25 0 48 62 63 82 20z"/>
<path d="M2477 2552 c-23 -26 -21 -58 5 -76 18 -13 53 -16 173 -16 164 0 195
9 195 54 0 49 -23 56 -197 56 -142 0 -162 -2 -176 -18z m303 -32 c10 -7 -31
-10 -125 -10 -94 0 -135 3 -125 10 8 5 65 10 125 10 61 0 117 -5 125 -10z"/>
<path d="M1437 2412 c-89 -89 -137 -145 -137 -158 0 -12 9 -42 20 -67 48 -109
47 -210 -6 -327 -18 -40 -23 -63 -17 -75 19 -34 220 -247 251 -267 30 -18 35
-19 56 -5 29 19 90 110 122 183 61 139 87 314 65 454 -28 177 -138 400 -198
400 -10 0 -80 -62 -156 -138z m180 66 c49 -55 104 -182 127 -292 37 -177 1
-383 -95 -547 -64 -111 -64 -111 -191 22 -59 63 -111 122 -114 132 -3 9 7 47
22 85 36 89 38 199 5 287 -12 33 -25 68 -28 78 -4 14 24 48 114 138 65 65 124
119 129 119 6 0 20 -10 31 -22z"/>
<path d="M1488 2363 c-108 -106 -111 -112 -87 -198 25 -92 25 -195 -2 -280
-17 -54 -18 -72 -9 -94 16 -40 155 -181 178 -181 49 0 125 147 152 294 26 140
-1 330 -66 458 -22 43 -56 78 -77 78 -5 0 -45 -35 -89 -77z m132 -20 c95 -205
91 -442 -11 -645 -16 -32 -33 -58 -37 -57 -4 0 -41 39 -83 86 l-77 86 21 46
c32 71 36 219 7 312 l-22 72 84 84 c45 45 83 83 84 83 1 0 16 -30 34 -67z"/>
<path d="M929 2289 c-119 -18 -208 -115 -217 -239 -8 -110 40 -199 137 -253
129 -73 291 -21 364 117 30 58 31 174 0 232 -24 46 -91 109 -131 126 -44 17
-104 24 -153 17z m136 -58 c95 -43 149 -151 125 -251 -26 -108 -105 -170 -216
-170 -74 0 -130 25 -172 76 -98 118 -49 301 93 352 47 16 126 13 170 -7z"/>
<path d="M904 2216 c-73 -33 -124 -110 -124 -186 0 -57 20 -99 68 -142 74 -67
148 -73 234 -19 116 74 116 243 0 325 -49 35 -129 45 -178 22z m155 -53 c90
-67 96 -185 12 -256 -97 -81 -251 -6 -251 123 0 64 40 124 100 149 36 15 108
7 139 -16z"/>
<path d="M2100 2168 c-69 -48 -88 -131 -46 -203 78 -133 276 -74 276 82 0 111
-137 184 -230 121z m156 -49 c45 -43 40 -132 -10 -164 -19 -12 -57 -19 -97
-16 -26 2 -68 50 -75 86 -7 41 16 89 54 110 36 20 97 13 128 -16z"/>
<path d="M2129 2091 c-36 -36 -37 -60 -3 -100 33 -39 68 -40 106 -4 36 34 36
72 2 107 -35 34 -68 33 -105 -3z m91 -31 c8 -14 8 -26 0 -40 -19 -35 -80 -20
-80 20 0 40 61 55 80 20z"/>
<path d="M2605 2093 c-98 -3 -122 -7 -132 -20 -17 -23 -16 -48 3 -67 23 -24
335 -24 358 0 20 19 20 44 3 68 -16 22 -52 24 -232 19z m180 -53 c-4 -6 -60
-10 -136 -10 -79 0 -129 4 -129 10 0 6 52 10 136 10 87 0 133 -4 129 -10z"/>
<path d="M2032 1628 c-9 -9 -12 -92 -12 -310 l0 -298 -168 0 c-117 0 -172 -4
-180 -12 -8 -8 -12 -59 -12 -165 l0 -153 -169 0 c-137 0 -171 -3 -181 -15 -9
-11 -12 -69 -11 -215 l2 -200 -556 0 c-364 0 -563 -4 -576 -10 -26 -15 -26
-75 0 -90 13 -7 447 -10 1334 -10 1260 0 1315 1 1330 18 15 17 17 71 17 575 0
492 -2 557 -16 571 -13 13 -44 16 -180 16 l-164 0 0 139 c0 114 -3 143 -16
155 -13 14 -48 16 -223 16 -148 0 -210 -3 -219 -12z m406 -40 c8 -8 12 -52 12
-130 0 -113 1 -120 25 -143 23 -24 29 -25 168 -25 104 0 147 -4 155 -13 7 -8
10 -188 11 -540 0 -505 -1 -527 -19 -537 -26 -14 -2579 -9 -2583 5 -1 7 189
12 548 15 303 3 551 6 552 8 22 23 29 67 33 232 l5 185 152 5 c203 7 196 1
203 188 l5 137 152 3 152 3 25 30 26 31 0 272 c0 150 3 276 7 279 12 13 358 8
371 -5z"/>
<path d="M2106 1549 l-26 -31 0 -614 c0 -650 1 -661 45 -678 9 -3 70 -6 135
-6 178 0 160 -76 160 678 l0 626 -27 28 c-26 28 -29 28 -144 28 l-117 0 -26
-31z m274 -649 l0 -640 -130 0 -130 0 0 640 0 640 130 0 130 0 0 -640z"/>
<path d="M2475 1245 l-25 -24 0 -474 c0 -580 -17 -527 164 -527 119 0 123 1
147 26 l24 26 2 468 2 469 -25 31 -26 30 -119 0 c-114 0 -121 -1 -144 -25z
m270 -500 l0 -485 -127 0 -128 0 0 485 0 485 128 0 127 0 0 -485z"/>
<path d="M1749 931 l-29 -29 0 -307 c0 -320 4 -353 45 -369 9 -3 70 -6 135 -6
172 0 160 -28 160 370 l0 318 -31 26 c-29 25 -37 26 -141 26 -108 0 -110 0
-139 -29z m271 -341 l0 -330 -130 0 -130 0 0 330 0 330 130 0 130 0 0 -330z"/>
<path d="M1385 604 c-24 -26 -25 -31 -25 -179 0 -139 2 -155 21 -179 20 -25
23 -26 139 -26 65 0 126 3 135 6 35 14 45 58 45 203 0 135 -1 140 -26 170
l-26 31 -119 0 c-117 0 -121 -1 -144 -26z m275 -179 l0 -165 -130 0 -130 0 0
165 0 165 130 0 130 0 0 -165z"/>
<path d="M166 874 c-23 -22 -20 -60 6 -78 35 -24 142 -22 168 4 25 25 26 52 2
73 -26 23 -154 24 -176 1z m129 -34 c4 -6 -14 -10 -47 -10 -38 0 -49 3 -38 10
20 13 77 13 85 0z"/>
<path d="M466 868 c-21 -30 -20 -44 4 -68 19 -19 33 -20 268 -20 269 0 292 4
292 55 0 53 -10 55 -290 55 -256 0 -259 0 -274 -22z m499 -28 c4 -7 -73 -10
-225 -10 -152 0 -229 3 -225 10 4 6 90 10 225 10 135 0 221 -4 225 -10z"/>
<path d="M172 564 c-24 -17 -30 -62 -10 -82 7 -7 44 -12 95 -12 73 0 84 2 93
21 16 30 4 68 -26 79 -40 15 -127 12 -152 -6z m128 -44 c0 -5 -20 -10 -45 -10
-25 0 -45 5 -45 10 0 6 20 10 45 10 25 0 45 -4 45 -10z"/>
<path d="M483 569 c-27 -10 -39 -49 -23 -78 10 -21 17 -21 278 -21 288 0 292
1 292 52 0 53 -20 57 -285 56 -132 0 -250 -4 -262 -9z m487 -49 c0 -6 -83 -10
-230 -10 -147 0 -230 4 -230 10 0 6 83 10 230 10 147 0 230 -4 230 -10z"/>
</g>
</svg>
