<?xml version="1.0" standalone="no"?>
<!DOCTYPE svg PUBLIC "-//W3C//DTD SVG 20010904//EN"
 "http://www.w3.org/TR/2001/REC-SVG-20010904/DTD/svg10.dtd">
<svg version="1.0" xmlns="http://www.w3.org/2000/svg"
 width="300.000000pt" height="300.000000pt" viewBox="0 0 300.000000 300.000000"
 preserveAspectRatio="xMidYMid meet">
<metadata>
Created by potrace 1.10, written by Peter Selinger 2001-2011
</metadata>
<g transform="translate(0.000000,300.000000) scale(0.100000,-0.100000)"
fill="#000000" stroke="none">
<path d="M2152 2639 c-193 -23 -367 -87 -420 -156 l-27 -36 0 -273 c0 -272 0
-272 24 -297 l23 -26 -21 -22 c-30 -33 -32 -58 -29 -331 3 -244 3 -247 27
-272 22 -24 23 -26 6 -42 -31 -32 -35 -65 -35 -311 0 -203 3 -251 16 -278 30
-63 119 -115 258 -150 318 -80 756 -45 939 75 52 35 71 61 80 110 l7 35 -49
-52 c-47 -50 -155 -114 -191 -112 -8 0 3 8 25 17 73 31 104 52 129 85 25 33
26 38 26 185 0 144 -1 152 -24 178 -22 27 -25 27 -64 16 -22 -7 -52 -26 -66
-43 -24 -28 -26 -38 -26 -125 0 -61 -4 -93 -10 -89 -5 3 -10 39 -10 79 0 63
-3 75 -23 94 -13 12 -29 22 -35 22 -7 0 -12 4 -12 8 0 5 34 19 76 31 164 48
226 127 154 196 l-30 29 -80 -27 c-108 -37 -122 -36 -82 6 l32 33 0 165 c0
160 -1 166 -23 187 -13 12 -32 22 -42 22 -35 0 -2 18 74 40 162 48 223 126
151 195 l-30 29 -80 -27 c-108 -37 -122 -36 -82 6 l32 33 0 165 c0 160 -1 166
-23 187 -13 12 -32 22 -42 22 -35 0 -2 18 74 40 121 36 184 86 184 147 0 37
-64 92 -134 117 -29 11 -48 21 -42 23 6 2 42 -10 80 -27 48 -22 82 -46 115
-83 l47 -52 -6 35 c-9 52 -44 92 -112 129 -152 81 -469 120 -729 90z m-251
-112 c-57 -23 -141 -93 -141 -118 0 -27 39 -78 79 -103 21 -14 73 -35 115 -47
69 -20 99 -39 61 -39 -8 0 -23 -10 -35 -22 -18 -20 -20 -35 -20 -189 l0 -167
32 -31 c40 -39 24 -41 -79 -5 -85 29 -106 25 -137 -27 -17 -28 -17 -31 1 -62
27 -46 87 -82 176 -108 69 -20 100 -39 62 -39 -8 0 -23 -10 -35 -22 -18 -20
-20 -35 -20 -189 l0 -167 31 -31 c39 -39 24 -40 -78 -5 -85 29 -106 25 -137
-27 -17 -28 -17 -31 1 -62 27 -46 87 -82 176 -108 69 -20 100 -39 62 -39 -8 0
-23 -10 -35 -22 -16 -18 -20 -35 -20 -95 0 -42 -4 -73 -10 -73 -6 0 -10 36
-10 89 0 82 -2 92 -26 120 -14 17 -43 36 -65 42 -36 11 -41 10 -64 -11 -25
-23 -25 -26 -25 -182 l0 -158 33 -35 c17 -19 55 -46 82 -59 28 -14 43 -26 35
-26 -8 0 -42 15 -75 33 -93 52 -95 58 -95 329 0 201 2 234 19 279 20 51 20 52
0 100 -17 44 -19 75 -19 274 0 200 2 230 20 275 20 50 20 50 0 100 -18 45 -20
75 -20 278 0 280 0 280 110 334 41 21 82 38 90 37 8 0 -9 -10 -39 -22z m714 3
c158 -30 285 -88 285 -130 0 -25 -57 -63 -136 -91 -198 -70 -542 -78 -772 -18
-81 21 -169 65 -186 92 -33 53 130 128 339 156 89 12 391 6 470 -9z m-218
-327 c-8 -7 -88 -6 -95 2 -3 3 19 5 48 5 29 0 50 -3 47 -7z m-299 -35 c132
-25 504 -13 587 18 14 6 15 -15 13 -172 l-3 -179 -65 -13 c-93 -20 -462 -20
-555 -1 l-70 15 -3 178 c-2 157 -1 178 13 172 8 -3 46 -11 83 -18z m-211 -398
c122 -46 246 -64 458 -64 216 0 310 12 454 60 78 26 101 22 101 -17 0 -41
-138 -102 -290 -130 -98 -18 -421 -19 -515 -1 -209 39 -334 109 -283 160 15
15 14 16 75 -8z m211 -252 c132 -25 504 -13 587 18 14 6 15 -15 13 -172 l-3
-179 -65 -13 c-93 -20 -462 -20 -555 -1 l-70 15 -3 178 c-2 157 -1 178 13 172
8 -3 46 -11 83 -18z m-209 -398 c115 -45 244 -63 451 -64 213 -1 320 13 458
60 79 26 102 22 102 -17 0 -41 -138 -102 -290 -130 -98 -18 -421 -19 -515 -1
-209 39 -334 109 -283 160 16 16 19 15 77 -8z m-32 -186 l43 -19 0 -117 c0
-123 8 -148 50 -148 41 0 50 25 50 137 0 92 2 104 16 99 105 -40 563 -40 668
0 14 5 16 -7 16 -99 0 -112 9 -137 50 -137 42 0 50 25 50 148 l0 117 43 19
c23 11 45 22 50 24 4 2 7 -71 7 -161 l0 -166 -30 -21 c-101 -72 -261 -104
-515 -105 -249 0 -404 29 -508 94 l-47 31 0 166 c0 91 3 164 8 162 4 -2 26
-13 49 -24z"/>
<path d="M1780 2268 c-18 -20 -20 -35 -20 -181 l0 -160 40 -38 c53 -51 84 -58
116 -28 24 22 24 26 24 185 0 160 0 163 -26 193 -14 17 -42 35 -62 41 -49 13
-48 13 -72 -12z m120 -226 l0 -173 -22 12 c-13 7 -35 21 -50 31 l-28 19 0 164
0 164 50 -22 50 -22 0 -173z"/>
<path d="M1780 1618 c-18 -20 -20 -35 -20 -181 l0 -160 40 -38 c53 -51 84 -58
116 -28 24 22 24 26 24 184 0 151 -1 164 -22 190 -21 27 -73 55 -102 55 -9 0
-24 -10 -36 -22z m120 -226 l0 -173 -22 12 c-13 7 -35 21 -50 31 l-28 19 0
164 0 164 50 -22 50 -22 0 -173z"/>
<path d="M2834 2276 c-17 -8 -40 -26 -52 -41 -21 -26 -22 -39 -22 -190 0 -156
1 -162 23 -183 30 -28 39 -28 87 4 67 44 70 55 70 222 0 136 -2 152 -21 176
-23 29 -40 31 -85 12z m57 -350 c-6 -6 -28 -22 -50 -34 l-41 -23 0 173 0 173
48 21 47 20 3 -159 c1 -92 -2 -164 -7 -171z"/>
<path d="M1266 2234 c-26 -25 -18 -53 24 -91 22 -20 40 -39 40 -42 0 -3 -292
-5 -650 -3 l-649 2 -17 -25 c-15 -23 -15 -27 0 -50 l17 -25 649 2 c358 2 650
0 650 -3 0 -3 -18 -22 -40 -42 -22 -19 -40 -45 -40 -56 0 -25 26 -51 50 -51
28 0 200 174 200 202 0 29 -168 198 -197 198 -12 0 -29 -7 -37 -16z m121 -106
c35 -34 63 -69 63 -78 0 -19 -127 -147 -136 -137 -3 3 3 18 15 33 11 15 21 34
21 42 0 20 -29 52 -47 52 -7 0 -13 5 -13 10 0 6 5 10 12 10 18 0 48 31 48 50
0 10 -9 29 -20 43 -11 14 -20 28 -20 31 0 15 19 1 77 -56z"/>
<path d="M2965 1928 c-43 -50 -48 -74 -26 -116 10 -20 27 -45 38 -54 18 -17
19 -16 15 16 -2 19 -13 44 -24 56 -19 20 -19 22 -3 40 14 16 39 90 30 90 -2 0
-15 -14 -30 -32z"/>
<path d="M14 1725 c-15 -23 -15 -27 0 -50 12 -19 25 -25 51 -25 l35 0 0 -150
0 -150 -35 0 c-26 0 -39 -6 -51 -25 -15 -23 -15 -27 0 -50 31 -47 143 -29 172
26 10 21 14 69 14 189 l0 160 34 0 c57 0 86 49 50 84 -12 13 -40 16 -134 16
-116 0 -120 -1 -136 -25z m190 -21 c12 -5 9 -11 -14 -31 l-30 -25 0 -152 c0
-167 -8 -196 -56 -196 l-26 0 31 26 31 26 0 145 0 145 -29 28 c-17 17 -24 31
-17 34 17 7 92 7 110 0z"/>
<path d="M428 1729 c-43 -22 -78 -81 -78 -129 0 -73 74 -150 144 -150 48 0 73
-52 40 -84 -22 -23 -47 -20 -78 9 -34 32 -61 32 -81 1 -15 -22 -15 -28 -2 -53
18 -35 84 -73 126 -73 77 0 151 74 151 150 0 73 -74 150 -144 150 -29 0 -56
24 -56 50 0 24 26 50 49 50 10 0 30 -11 45 -25 34 -32 61 -32 81 -1 15 22 15
27 0 55 -18 37 -81 71 -127 71 -18 -1 -50 -10 -70 -21z m138 -51 c21 -24 27
-25 -48 5 -34 14 -67 -2 -92 -44 -23 -39 -15 -69 29 -108 28 -25 32 -31 17
-31 -11 0 -31 12 -46 26 -21 21 -26 36 -26 74 0 66 34 100 100 100 36 0 51 -5
66 -22z m8 -204 c21 -21 26 -36 26 -74 0 -66 -34 -100 -100 -100 -34 0 -52 5
-65 20 -21 23 -11 25 25 5 40 -23 65 -18 99 20 46 53 38 91 -29 138 -23 16
-23 17 -4 17 12 0 33 -12 48 -26z"/>
<path d="M832 1733 c-66 -32 -77 -61 -80 -220 -3 -117 -1 -148 14 -178 36 -77
134 -107 208 -63 65 38 76 72 76 228 0 157 -11 190 -76 227 -46 27 -96 29
-142 6z m142 -59 c26 -26 26 -28 26 -174 0 -144 -1 -148 -25 -173 -42 -41
-108 -42 -149 -1 -24 25 -25 32 -28 161 -2 74 1 144 5 156 13 36 48 57 98 57
37 0 52 -5 73 -26z"/>
<path d="M860 1677 c-43 -34 -50 -58 -50 -182 l0 -121 33 -32 c42 -41 74 -41
115 -1 l32 31 0 127 0 127 -31 32 c-33 34 -72 41 -99 19z m74 -43 c13 -12 16
-40 16 -134 0 -125 -8 -150 -50 -150 -42 0 -50 25 -50 150 0 125 8 150 50 150
10 0 26 -7 34 -16z"/>
<path d="M1166 1734 c-24 -23 -24 -445 0 -468 20 -21 48 -20 69 1 14 13 16 34
13 120 -1 56 -1 103 2 103 3 -1 28 -49 55 -107 54 -116 67 -133 95 -133 46 0
50 18 50 250 0 232 -4 250 -50 250 -43 0 -52 -26 -48 -137 1 -56 1 -103 -2
-103 -3 0 -27 48 -55 107 -27 58 -55 112 -63 119 -18 19 -47 18 -66 -2z m87
-118 c21 -41 50 -87 64 -102 l26 -28 23 28 c20 22 24 38 24 91 0 35 5 67 10
70 7 4 10 -54 8 -176 -2 -110 -7 -184 -13 -186 -5 -1 -28 31 -50 73 -22 42
-51 88 -64 102 l-24 26 -23 -28 c-20 -22 -24 -38 -24 -92 0 -36 -4 -64 -10
-64 -6 0 -10 67 -10 180 0 137 3 180 13 180 6 0 29 -33 50 -74z"/>
<path d="M2832 1623 c-67 -33 -72 -47 -72 -228 0 -158 0 -162 24 -184 33 -31
65 -22 116 30 l40 41 0 153 c0 139 -2 155 -21 179 -24 30 -41 32 -87 9z m59
-347 c-6 -6 -28 -22 -50 -34 l-41 -23 0 173 0 173 48 21 47 20 3 -159 c1 -92
-2 -164 -7 -171z"/>
<path d="M2965 1278 c-43 -50 -48 -74 -26 -116 10 -20 27 -45 38 -54 18 -17
19 -16 15 16 -2 19 -13 44 -24 56 -20 21 -20 21 0 43 15 17 37 87 26 87 -1 0
-14 -14 -29 -32z"/>
<path d="M108 1078 c-41 -40 -83 -85 -92 -100 -17 -27 -18 -29 -1 -55 32 -48
165 -173 184 -173 25 0 51 26 51 51 0 11 -18 37 -40 56 -22 20 -40 39 -40 42
0 3 292 5 649 3 582 -2 651 -1 665 14 20 20 20 48 0 68 -14 15 -83 16 -665 14
-357 -2 -649 0 -649 3 0 3 18 22 40 42 22 19 40 44 40 55 0 22 -30 52 -52 52
-9 0 -50 -33 -90 -72z m63 -24 c-11 -15 -21 -34 -21 -44 0 -20 27 -46 55 -52
20 -5 20 -5 0 -13 -57 -23 -68 -56 -34 -99 45 -57 5 -37 -64 32 l-72 73 73 71
c70 69 106 87 63 32z"/>
</g>
</svg>
