<?xml version="1.0" standalone="no"?>
<!DOCTYPE svg PUBLIC "-//W3C//DTD SVG 20010904//EN"
 "http://www.w3.org/TR/2001/REC-SVG-20010904/DTD/svg10.dtd">
<svg version="1.0" xmlns="http://www.w3.org/2000/svg"
 width="300.000000pt" height="300.000000pt" viewBox="0 0 300.000000 300.000000"
 preserveAspectRatio="xMidYMid meet">
<metadata>
Created by potrace 1.10, written by Peter Selinger 2001-2011
</metadata>
<g transform="translate(0.000000,300.000000) scale(0.100000,-0.100000)"
fill="#000000" stroke="none">
<path d="M2350 2991 c0 -3 23 -25 50 -49 l50 -43 -2 -217 -2 -217 -6 205 c-5
217 -9 233 -57 258 -16 9 -196 12 -662 12 l-641 0 -32 -29 -33 -29 -5 -159
c-6 -168 -12 -192 -57 -212 -38 -17 -62 -13 -28 5 58 29 65 48 65 174 0 125
-11 160 -52 160 -26 0 -276 -244 -285 -278 -6 -27 21 -62 49 -62 11 0 16 -4
13 -10 -3 -5 -24 -10 -47 -10 -32 0 -47 -7 -74 -34 l-34 -34 0 -208 c0 -114
-2 -205 -5 -202 -3 3 -6 106 -6 230 -1 184 2 231 15 263 10 24 81 103 193 216
153 155 187 184 257 221 l81 43 -38 3 c-70 6 -118 -29 -317 -227 -131 -131
-193 -201 -210 -236 -25 -50 -25 -52 -28 -387 l-3 -338 -143 0 c-106 0 -155
-4 -191 -17 -88 -30 -164 -131 -153 -203 3 -23 6 -21 27 20 13 25 35 60 48 79
26 34 93 71 128 70 12 0 4 -6 -20 -15 -50 -18 -92 -58 -116 -109 -15 -33 -19
-65 -19 -176 0 -123 2 -139 21 -163 11 -14 27 -26 35 -26 8 0 14 -4 14 -10 0
-5 -6 -10 -14 -10 -8 0 -24 -12 -35 -26 -20 -26 -21 -38 -21 -314 0 -276 1
-288 21 -314 11 -14 30 -26 42 -26 19 0 18 -3 -10 -20 -51 -31 -55 -47 -51
-209 3 -143 4 -149 30 -184 16 -19 43 -46 60 -59 l33 -23 1317 0 c1315 0 1317
0 1344 21 15 11 42 37 58 58 l31 38 3 681 c2 375 0 701 -3 723 -7 50 -63 120
-113 141 -19 8 -32 17 -29 20 3 3 27 -5 53 -17 45 -22 56 -36 119 -142 l19
-33 4 33 c5 45 -31 115 -78 152 -64 50 -106 60 -266 60 l-144 0 0 541 c0 588
0 589 -56 626 -26 17 -94 35 -94 24z m34 -107 c14 -14 16 -100 16 -800 l0
-784 -900 0 -900 0 0 559 c0 495 2 561 16 575 13 13 42 16 165 16 130 0 155 3
189 20 68 35 80 73 80 249 0 123 3 152 16 165 14 14 87 16 659 16 572 0 645
-2 659 -16z m-1434 -178 c0 -100 -3 -128 -16 -140 -12 -13 -40 -16 -139 -16
l-123 0 136 139 c75 76 138 139 140 140 1 1 2 -55 2 -123z m1532 -923 c12 -13
27 -23 35 -23 7 0 13 -4 13 -10 0 -5 -5 -10 -12 -10 -6 0 -22 -10 -35 -22
l-23 -21 0 -548 0 -547 30 -25 c34 -29 25 -37 -40 -37 -65 0 -74 8 -40 37 l30
25 0 297 c0 296 0 298 -22 318 -13 11 -32 24 -43 28 -20 8 -20 8 0 13 11 2 30
13 43 25 l22 20 0 447 c0 246 3 450 8 454 4 4 8 -84 10 -195 2 -192 4 -204 24
-226z m-1922 -151 c0 -328 0 -329 23 -349 12 -12 31 -23 42 -25 20 -5 20 -5 0
-13 -11 -4 -30 -17 -42 -28 -22 -20 -23 -26 -23 -224 0 -134 -3 -202 -10 -198
-6 4 -10 166 -10 452 0 445 0 447 -22 470 -12 13 -27 23 -35 23 -7 0 -13 5
-13 10 0 6 5 10 12 10 6 0 22 10 35 22 20 19 23 31 23 100 0 45 4 78 10 78 6
0 10 -116 10 -328z m-60 -482 l0 -550 -34 0 c-57 0 -86 -49 -50 -84 14 -14
126 -16 1084 -16 958 0 1070 2 1084 16 36 35 7 84 -50 84 l-34 0 0 551 0 550
153 -3 c138 -3 155 -5 183 -25 67 -48 65 -17 62 -785 l-3 -693 -22 -31 c-49
-68 46 -64 -1373 -64 -1419 0 -1324 -4 -1373 64 -20 28 -22 45 -25 184 l-3
152 43 0 c55 0 115 35 139 80 17 31 19 61 19 318 0 264 -1 285 -20 322 -24 48
-81 80 -140 80 l-41 0 3 153 c3 138 5 155 25 183 39 55 71 64 231 64 l142 0 0
-550z m-277 72 l26 -27 1 -260 c0 -143 0 -276 0 -296 0 -46 -38 -89 -77 -88
-24 0 -25 1 -8 8 11 5 32 21 48 36 l27 28 0 277 0 278 -40 36 c-30 27 -35 36
-22 36 10 0 30 -12 45 -28z m-39 -38 c14 -13 16 -53 16 -284 0 -299 0 -300
-66 -300 l-34 0 0 300 0 300 34 0 c19 0 42 -7 50 -16z m2216 -284 l0 -300
-900 0 -900 0 0 300 0 300 900 0 900 0 0 -300z m-1840 -277 c0 -22 39 -63 59
-63 14 0 14 -1 1 -10 -17 -11 -99 -13 -124 -4 -12 5 -9 11 14 31 17 14 30 33
30 44 0 10 5 19 10 19 6 0 10 -8 10 -17z"/>
<path d="M1178 2279 c-59 -30 -78 -79 -78 -193 0 -52 -3 -101 -6 -110 -3 -9
-23 -20 -44 -26 -67 -18 -67 -82 0 -100 21 -6 41 -17 44 -26 3 -9 6 -58 6
-110 0 -75 4 -103 20 -134 33 -64 127 -101 164 -64 30 29 9 84 -32 84 -41 1
-47 15 -52 139 -4 96 -8 123 -23 139 -17 19 -17 21 2 53 18 28 21 51 21 136 0
107 10 133 50 133 24 0 50 26 50 50 0 49 -58 63 -122 29z m37 -47 c-46 -38
-55 -63 -55 -148 0 -48 -7 -102 -16 -132 -15 -46 -15 -54 0 -98 10 -30 16 -81
16 -140 l0 -93 37 -36 c23 -22 30 -35 21 -35 -24 0 -65 47 -72 81 -3 18 -6 69
-6 114 l0 83 -40 36 -40 36 40 36 40 36 0 94 c0 51 4 104 9 117 12 31 50 67
70 67 13 -1 12 -4 -4 -18z"/>
<path d="M1816 2284 c-9 -8 -16 -24 -16 -34 0 -10 7 -26 16 -34 8 -9 24 -16
34 -16 40 0 50 -26 50 -133 0 -85 3 -108 21 -136 19 -32 19 -34 2 -53 -15 -16
-19 -43 -23 -139 -5 -124 -11 -138 -52 -139 -41 0 -62 -55 -32 -84 37 -37 131
0 164 64 16 31 20 59 20 134 0 52 3 101 6 110 3 9 23 20 44 26 67 18 67 82 0
100 -21 6 -41 17 -44 26 -3 9 -6 58 -6 110 0 75 -4 103 -20 134 -33 64 -127
101 -164 64z m103 -55 c34 -31 41 -61 41 -163 l0 -94 40 -36 40 -36 -38 -34
-37 -34 -6 -109 c-6 -115 -16 -144 -57 -163 -37 -16 -35 -8 3 29 34 32 35 34
35 115 0 45 7 108 15 140 14 52 14 63 0 109 -8 28 -15 89 -15 137 0 86 0 87
-37 123 -39 39 -25 54 16 16z"/>
<path d="M1516 2134 c-10 -9 -16 -33 -16 -59 0 -47 19 -75 50 -75 31 0 50 28
50 75 0 47 -19 75 -50 75 -10 0 -26 -7 -34 -16z"/>
<path d="M1523 1892 c-19 -12 -75 -183 -68 -209 3 -12 14 -25 25 -28 43 -14
58 3 89 98 36 106 36 110 15 131 -17 17 -42 20 -61 8z m21 -79 c-10 -43 -34
-97 -39 -91 -6 6 33 118 41 118 2 0 1 -12 -2 -27z"/>
<path d="M2716 1284 c-14 -13 -16 -62 -16 -384 0 -322 2 -371 16 -384 20 -20
48 -20 68 0 14 13 16 62 16 384 0 322 -2 371 -16 384 -8 9 -24 16 -34 16 -10
0 -26 -7 -34 -16z"/>
<path d="M766 1084 c-36 -35 -7 -84 50 -84 l34 0 0 -84 c0 -89 -11 -116 -50
-116 -43 0 -65 -54 -34 -84 37 -37 131 0 164 64 16 31 20 59 20 130 l0 90 34
0 c38 0 66 21 66 50 0 42 -25 50 -150 50 -94 0 -122 -3 -134 -16z m197 -30 c3
-3 -7 -17 -24 -31 -27 -23 -29 -30 -29 -93 0 -37 -3 -81 -6 -99 -7 -34 -48
-81 -72 -81 -11 0 -4 13 21 38 37 38 37 38 37 124 0 83 -1 87 -29 111 -17 14
-27 28 -24 31 4 3 32 6 63 6 31 0 59 -3 63 -6z"/>
<path d="M1213 1080 c-104 -63 -72 -204 52 -230 21 -4 30 -12 30 -25 0 -17 -9
-21 -63 -25 -63 -5 -82 -17 -82 -52 0 -33 29 -48 93 -48 72 0 117 22 142 69
40 78 -6 161 -100 181 -21 4 -30 12 -30 25 0 17 9 21 63 25 63 5 82 17 82 52
0 33 -29 48 -93 48 -44 0 -71 -6 -94 -20z m28 -61 c-17 -17 -31 -36 -31 -42 0
-21 48 -65 85 -77 41 -13 55 -35 55 -84 0 -38 -28 -66 -65 -66 -20 1 -20 1 0
12 24 14 54 49 55 63 0 18 -50 65 -78 71 -44 11 -62 33 -62 77 0 45 22 77 52
77 17 0 15 -4 -11 -31z"/>
<path d="M1582 1084 c-60 -31 -77 -67 -80 -174 -4 -112 12 -152 74 -187 49
-28 93 -29 144 -3 58 30 80 79 80 181 0 93 -16 138 -63 171 -39 28 -112 34
-155 12z m142 -60 c25 -25 26 -32 26 -124 0 -91 -2 -99 -25 -123 -42 -42 -108
-42 -149 0 -24 24 -26 32 -26 125 0 94 1 100 26 123 39 36 111 35 148 -1z"/>
<path d="M1610 1027 c-38 -30 -50 -61 -50 -132 0 -67 2 -73 33 -103 43 -42 74
-41 115 1 30 31 32 37 32 108 0 72 -1 76 -33 107 -34 33 -70 41 -97 19z m74
-43 c12 -11 16 -35 16 -84 0 -73 -14 -100 -50 -100 -36 0 -50 27 -50 100 0 73
14 100 50 100 10 0 26 -7 34 -16z"/>
<path d="M1916 1084 c-13 -13 -16 -44 -16 -184 0 -179 5 -200 50 -200 39 0 52
28 48 106 -2 41 0 74 3 74 3 0 27 -34 53 -75 56 -89 71 -105 96 -105 45 0 50
21 50 200 0 179 -5 200 -50 200 -39 0 -52 -28 -48 -106 2 -41 0 -74 -3 -74 -3
0 -27 34 -53 75 -26 41 -54 82 -63 90 -19 19 -48 19 -67 -1z m94 -103 c22 -33
50 -67 62 -76 22 -15 24 -14 46 10 12 14 22 37 22 51 0 13 5 24 10 24 15 0 9
-222 -7 -227 -6 -2 -30 23 -52 56 -23 33 -51 67 -63 75 -20 15 -24 14 -45 -6
-17 -16 -23 -33 -23 -65 0 -24 -4 -43 -10 -43 -6 0 -10 48 -10 123 0 163 7
170 70 78z"/>
<path d="M12 195 c11 -91 95 -173 185 -182 46 -4 47 -3 28 12 -11 9 -41 27
-67 41 -49 25 -82 62 -117 132 -12 23 -24 42 -28 42 -3 0 -3 -20 -1 -45z"/>
<path d="M2943 174 c-37 -62 -101 -123 -130 -124 -5 0 -19 -9 -33 -20 l-25
-20 34 0 c98 0 208 112 199 204 -3 30 -4 29 -45 -40z"/>
</g>
</svg>
