<?xml version="1.0" standalone="no"?>
<!DOCTYPE svg PUBLIC "-//W3C//DTD SVG 20010904//EN"
 "http://www.w3.org/TR/2001/REC-SVG-20010904/DTD/svg10.dtd">
<svg version="1.0" xmlns="http://www.w3.org/2000/svg"
 width="300.000000pt" height="300.000000pt" viewBox="0 0 300.000000 300.000000"
 preserveAspectRatio="xMidYMid meet">
<metadata>
Created by potrace 1.10, written by Peter Selinger 2001-2011
</metadata>
<g transform="translate(0.000000,300.000000) scale(0.100000,-0.100000)"
fill="#000000" stroke="none">
<path d="M113 2930 c-64 -39 -63 -26 -63 -587 0 -486 1 -509 20 -540 40 -67
46 -68 332 -68 l258 0 0 -143 0 -143 255 3 255 3 0 -66 0 -66 -37 -7 c-47 -7
-160 -60 -191 -89 -49 -45 -52 -63 -52 -277 l0 -200 -95 0 -95 0 0 135 c0 152
-9 182 -63 215 -29 18 -51 20 -262 20 -347 0 -327 26 -323 -429 l3 -329 25
-27 c46 -50 72 -55 295 -55 223 0 249 5 295 54 24 26 25 34 28 177 l3 149 95
0 94 0 0 -200 c0 -217 3 -231 57 -281 88 -83 287 -129 553 -129 264 0 466 47
553 129 54 50 57 64 57 281 l0 200 94 0 95 0 3 -149 c3 -143 4 -151 28 -177
46 -49 72 -54 295 -54 223 0 249 5 295 55 l25 27 3 329 c3 364 2 371 -61 409
-29 18 -51 20 -262 20 -211 0 -233 -2 -262 -20 -54 -33 -63 -63 -63 -215 l0
-135 -95 0 -95 0 0 200 c0 214 -3 232 -52 277 -32 30 -118 72 -178 86 l-50 12
0 65 0 65 255 -3 255 -3 0 143 0 143 258 0 c286 0 292 1 332 68 19 31 20 54
20 540 0 561 1 548 -63 587 -31 19 -54 20 -594 20 l-561 0 -32 -26 c-62 -53
-60 -35 -60 -581 0 -467 1 -501 19 -533 10 -19 34 -44 52 -55 32 -19 52 -20
287 -20 l252 0 0 -95 0 -95 -261 3 -262 3 5 -105 5 -106 -26 8 c-34 9 -388 9
-422 0 l-26 -8 5 106 5 105 -262 -3 -261 -3 0 95 0 95 253 0 c234 0 254 1 286
20 18 11 42 36 52 55 18 32 19 66 19 533 0 546 2 528 -60 581 l-32 26 -561 0
c-540 0 -563 -1 -594 -20z m1139 -87 c16 -14 18 -33 18 -140 l0 -123 -565 0
-565 0 0 124 c0 100 3 128 16 140 14 14 77 16 546 16 480 0 533 -2 550 -17z
m1592 1 c14 -14 16 -73 16 -503 0 -365 -3 -490 -12 -499 -9 -9 -145 -12 -549
-12 -475 0 -539 2 -553 16 -14 14 -16 72 -16 496 0 434 2 483 17 500 15 17 45
18 549 18 471 0 534 -2 548 -16z m-2704 -297 c19 -13 18 -15 -15 -47 l-35 -34
0 69 c0 65 1 68 15 48 9 -12 24 -28 35 -36z m1180 -19 l0 -62 -34 33 -33 32
26 28 c14 16 29 29 34 30 4 0 7 -27 7 -61z m-50 -355 c0 -270 -2 -314 -16
-327 -14 -14 -78 -16 -553 -16 -404 0 -540 3 -549 12 -9 9 -12 95 -12 327 l0
316 565 0 565 0 0 -312z m-536 -389 c14 -5 13 -9 -4 -34 -29 -41 -29 -189 0
-215 27 -24 25 -35 -5 -35 l-25 0 0 109 c0 102 -2 111 -25 139 -18 22 -22 32
-13 35 19 8 54 8 72 1z m1600 0 c14 -5 12 -11 -9 -36 -23 -28 -25 -37 -25
-139 l0 -109 -25 0 c-30 0 -32 11 -5 35 17 15 20 31 20 102 0 70 -4 89 -20
111 -16 20 -18 27 -8 34 15 9 50 10 72 2z m-1114 -314 c0 -16 -1 -30 -3 -30
-2 0 -13 14 -25 30 l-23 30 26 0 c21 0 25 -5 25 -30z m588 0 c-12 -16 -23 -30
-25 -30 -2 0 -3 14 -3 30 0 25 4 30 25 30 l26 0 -23 -30z m-555 -146 c16 -19
24 -34 18 -34 -7 0 -21 -16 -33 -36 l-21 -35 -28 27 -28 27 24 29 c14 16 25
36 25 44 0 22 12 16 43 -22z m537 22 c0 -8 11 -28 25 -44 l24 -29 -28 -27 -28
-27 -21 35 c-12 20 -26 36 -33 36 -12 0 41 68 54 69 4 1 7 -5 7 -13z m-84 -92
c31 -6 31 -6 30 -67 l-1 -62 48 -1 47 -1 0 54 c0 55 0 55 28 48 48 -12 134
-59 150 -82 13 -21 12 -25 -16 -51 -72 -68 -246 -105 -492 -105 -248 0 -448
44 -500 111 -18 22 -19 28 -7 46 15 22 102 70 150 81 l27 7 0 -55 0 -56 48 2
47 2 -1 62 -1 62 41 6 c23 3 61 7 86 9 54 5 272 -2 316 -10z m-713 -201 c26
-28 28 -33 12 -33 -10 0 -29 -10 -42 -22 -20 -19 -23 -31 -23 -93 0 -70 1 -73
41 -119 34 -38 37 -46 21 -46 -25 0 -50 -29 -58 -69 l-7 -32 -27 33 -28 33 24
28 c23 28 24 34 24 201 0 170 5 204 23 169 5 -10 23 -33 40 -50z m1077 -15 l0
-72 -28 27 c-15 15 -36 27 -46 27 -14 0 -9 10 21 45 21 24 41 44 46 45 4 0 7
-32 7 -72z m-1472 -20 c9 -9 12 -93 12 -314 0 -302 0 -303 -22 -318 -33 -23
-393 -23 -426 0 -22 15 -22 16 -22 318 0 221 3 305 12 314 17 17 429 17 446 0z
m2250 0 c9 -9 12 -93 12 -314 0 -302 0 -303 -22 -318 -33 -23 -393 -23 -426 0
-22 15 -22 16 -22 318 0 221 3 305 12 314 17 17 429 17 446 0z m-1783 -62
c109 -45 220 -60 435 -60 249 0 337 16 508 91 9 4 12 -14 12 -72 0 -70 -2 -79
-28 -104 -66 -67 -245 -105 -492 -105 -247 0 -426 38 -492 105 -26 25 -28 34
-28 104 0 58 3 76 13 72 6 -3 39 -17 72 -31z m1030 -226 l24 -25 -29 -31 -28
-32 -6 31 c-8 38 -33 67 -58 67 -16 0 -11 9 24 50 l43 50 3 -42 c2 -28 11 -52
27 -68z m-1378 -26 c2 0 -13 -16 -32 -34 l-35 -34 0 64 0 64 32 -30 c18 -16
34 -29 35 -30z m1633 -6 l0 -62 -34 33 -34 33 31 29 c18 16 33 29 35 29 1 0 2
-28 2 -62z m-1337 -2 c70 -46 299 -86 487 -86 188 0 417 40 487 86 12 8 25 14
28 14 3 0 5 -35 5 -78 0 -69 -3 -81 -22 -99 -61 -56 -175 -88 -366 -105 -210
-19 -456 9 -567 64 -77 38 -85 52 -85 140 0 43 2 78 5 78 3 0 16 -6 28 -14z
m-14 -234 c-10 -2 -27 -14 -38 -28 -10 -13 -22 -24 -25 -24 -3 0 -6 34 -6 76
l0 76 44 -49 c37 -41 41 -48 25 -51z m1067 -50 c-3 -3 -15 7 -27 21 -11 15
-29 27 -41 27 -16 0 -13 8 24 49 l43 48 3 -70 c2 -38 1 -72 -2 -75z m-1022
-11 c102 -48 221 -65 456 -65 267 0 368 18 513 92 4 2 7 -32 7 -76 0 -80 0
-81 -36 -110 -80 -66 -235 -97 -484 -97 -249 0 -404 31 -484 97 -36 29 -36 30
-36 110 0 44 3 78 8 76 4 -2 29 -14 56 -27z"/>
<path d="M230 2720 l0 -50 50 0 50 0 0 50 0 50 -50 0 -50 0 0 -50z"/>
<path d="M420 2720 l0 -50 50 0 50 0 0 50 0 50 -50 0 -50 0 0 -50z"/>
<path d="M610 2720 l0 -50 45 0 45 0 0 50 0 50 -45 0 -45 0 0 -50z"/>
<path d="M2159 2763 c0 -5 0 -27 1 -50 l2 -43 -96 0 -96 0 0 -140 0 -140 -48
0 -49 0 0 -45 0 -45 424 0 423 0 0 45 0 45 -51 0 -51 0 4 95 4 95 -93 0 -93 0
0 95 0 95 -140 0 c-77 0 -140 -3 -141 -7z m91 -51 c0 -5 -9 -17 -20 -27 -18
-16 -20 -31 -20 -155 0 -124 2 -139 20 -155 31 -28 24 -35 -31 -35 l-50 0 25
33 c23 30 26 44 26 114 0 77 -1 82 -31 111 -29 29 -30 30 -11 43 10 8 27 29
36 47 10 20 24 32 36 32 11 0 20 -4 20 -8z m140 -24 c0 -17 -1 -29 -2 -27 -2
2 -14 16 -27 32 l-24 27 26 0 c24 0 27 -4 27 -32z m-45 -158 l0 -140 -47 0
-48 0 0 140 0 140 48 0 47 0 0 -140z m-299 67 c-23 -30 -26 -43 -26 -115 0
-72 3 -84 26 -111 l26 -31 -57 0 -57 0 26 31 c24 29 26 37 26 138 0 59 3 111
7 114 3 4 17 7 30 7 l24 0 -25 -33z m375 -95 l-31 -30 0 61 0 62 31 -31 31
-31 -31 -31z m-261 -17 l0 -95 -50 0 -50 0 0 95 0 95 50 0 50 0 0 -95z m420
13 l0 -29 -24 28 c-15 18 -20 30 -14 35 20 12 38 -4 38 -34z m-50 -59 l0 -49
-45 0 -45 0 0 48 0 49 45 1 45 0 0 -49z m-93 -95 c-3 -3 -26 -4 -52 -2 l-48 3
27 32 28 33 25 -31 c14 -16 23 -32 20 -35z m146 -2 c-25 -2 -47 -1 -50 2 -3 3
5 18 18 35 l24 29 27 -31 27 -32 -46 -3z"/>
<path d="M1873 2155 l0 -45 94 0 93 0 0 45 0 45 -93 0 -94 0 0 -45z"/>
<path d="M2155 2155 l0 -45 283 0 282 0 0 45 0 45 -282 0 -283 0 0 -45z"/>
<path d="M1879 2018 c-1 -2 -3 -24 -5 -50 l-3 -48 424 0 425 0 0 50 0 50 -420
0 c-231 0 -421 -1 -421 -2z"/>
<path d="M230 2250 l0 -140 145 0 145 0 0 140 0 140 -145 0 -145 0 0 -140z
m100 94 c0 -3 -11 -19 -25 -36 l-25 -30 0 30 c0 16 3 32 7 35 8 9 43 9 43 1z
m138 -29 l4 -30 -26 24 c-32 30 -33 43 -3 39 16 -2 23 -11 25 -33z m-48 -65
l0 -50 -45 0 -45 0 0 50 0 50 45 0 45 0 0 -50z m-90 -95 c0 -3 -10 -5 -22 -3
-18 2 -24 11 -26 37 l-4 34 26 -30 c14 -17 26 -34 26 -38z m136 9 c-5 -13 -46
-21 -46 -8 0 3 10 18 23 33 20 25 22 26 25 9 2 -11 1 -26 -2 -34z"/>
<path d="M610 2345 l0 -45 280 0 280 0 0 45 0 45 -280 0 -280 0 0 -45z"/>
<path d="M610 2155 l0 -45 280 0 280 0 0 45 0 45 -280 0 -280 0 0 -45z"/>
<path d="M230 1970 l0 -50 50 0 50 0 0 50 0 50 -50 0 -50 0 0 -50z"/>
<path d="M420 1970 l0 -50 375 0 375 0 0 50 0 50 -375 0 -375 0 0 -50z"/>
<path d="M230 890 l0 -50 145 0 145 0 0 50 0 50 -145 0 -145 0 0 -50z"/>
<path d="M232 704 l3 -45 140 0 140 0 3 45 3 46 -146 0 -146 0 3 -46z"/>
<path d="M230 515 l0 -45 145 0 145 0 0 45 0 45 -145 0 -145 0 0 -45z"/>
<path d="M2480 890 l0 -50 145 0 145 0 0 50 0 50 -145 0 -145 0 0 -50z"/>
<path d="M2482 704 l3 -45 140 0 140 0 3 45 3 46 -146 0 -146 0 3 -46z"/>
<path d="M2480 515 l0 -45 145 0 145 0 0 45 0 45 -145 0 -145 0 0 -45z"/>
</g>
</svg>
